<?xml version="1.0" standalone="no"?>
<!DOCTYPE svg PUBLIC "-//W3C//DTD SVG 20010904//EN"
 "http://www.w3.org/TR/2001/REC-SVG-20010904/DTD/svg10.dtd">
<svg version="1.0" xmlns="http://www.w3.org/2000/svg"
 width="374.000000pt" height="102.000000pt" viewBox="0 0 374.000000 102.000000"
 preserveAspectRatio="xMidYMid meet">

<g transform="translate(0.000000,102.000000) scale(0.100000,-0.100000)"
fill="#000000" stroke="none">
<path d="M398 783 c-24 -27 -49 -82 -122 -263 -37 -91 -71 -169 -77 -174 -14
-15 -11 58 7 162 8 50 14 104 12 119 l-3 28 -17 -31 c-35 -64 -62 -296 -39
-333 12 -18 36 -9 55 22 9 13 52 113 96 223 45 109 85 203 91 209 16 16 10
-84 -16 -261 -28 -191 -30 -220 -13 -230 19 -12 59 46 152 221 49 91 89 165
91 165 1 0 -8 -44 -21 -97 -46 -191 -53 -315 -19 -343 23 -19 51 4 96 80 23
39 45 72 49 75 4 2 15 -4 25 -15 30 -33 81 -24 133 23 l22 20 0 -41 c0 -60 19
-53 58 21 19 34 45 76 59 92 24 29 25 29 19 5 -3 -14 -9 -59 -12 -100 -6 -64
-4 -78 11 -90 15 -13 20 -11 45 17 15 17 30 37 33 44 4 11 8 10 19 -5 21 -27
41 -16 84 44 20 27 38 50 41 50 3 0 2 -22 -2 -49 -7 -53 8 -78 30 -48 21 30
25 19 19 -52 -4 -44 -3 -71 4 -75 17 -10 46 28 67 89 15 44 22 54 34 48 35
-17 96 -8 131 19 l36 27 -4 -67 c-3 -53 -1 -71 12 -81 22 -18 40 -2 76 69 30
59 65 168 57 176 -2 3 -21 -38 -41 -90 -21 -53 -46 -106 -56 -118 l-19 -23 -1
28 c0 48 31 179 62 259 31 81 63 118 104 118 12 0 26 5 29 10 4 6 -10 10 -34
10 l-41 0 0 56 c0 72 -15 68 -55 -14 -29 -59 -33 -62 -82 -77 -67 -20 -68 -29
-4 -20 l50 7 -10 -39 c-40 -154 -70 -213 -121 -239 -67 -35 -81 41 -19 109 64
70 75 107 31 107 -36 0 -103 -107 -140 -225 -21 -67 -27 -60 -22 26 l5 82 -27
-7 c-24 -6 -26 -4 -26 24 0 49 -26 36 -76 -40 -26 -39 -49 -70 -51 -70 -3 0
-2 34 2 75 5 45 4 75 -2 75 -5 0 -31 -46 -56 -102 -56 -120 -72 -121 -52 -3
17 93 19 135 6 135 -10 0 -67 -56 -88 -87 -18 -27 -33 -30 -33 -5 0 16 13 41
83 162 30 53 60 156 51 182 -7 23 -36 23 -57 0 -23 -25 -41 -71 -86 -222 -40
-132 -68 -185 -117 -216 -19 -13 -27 -14 -39 -4 -28 24 -18 66 30 120 49 55
60 100 25 100 -26 0 -58 -43 -149 -200 -43 -74 -84 -136 -91 -138 -26 -9 -5
131 65 437 19 84 23 117 15 125 -17 17 -38 -17 -157 -254 -64 -128 -109 -207
-111 -196 -2 10 8 108 24 217 22 158 25 204 16 224 -14 29 -33 32 -54 8z m647
-112 c-20 -54 -55 -114 -62 -107 -7 7 26 116 50 161 19 36 22 38 25 16 2 -13
-4 -44 -13 -70z m656 12 c-8 -15 -10 -15 -11 -2 0 17 10 32 18 25 2 -3 -1 -13
-7 -23z m-25 -80 c-10 -10 -19 5 -10 18 6 11 8 11 12 0 2 -7 1 -15 -2 -18z
m-846 -102 c-10 -21 -30 -37 -30 -26 0 14 21 45 31 45 6 0 6 -7 -1 -19z m670
-1 c-6 -11 -15 -20 -20 -20 -6 0 -5 9 2 20 7 11 16 20 21 20 4 0 3 -9 -3 -20z"/>
<path d="M2346 768 c-24 -13 -66 -107 -105 -235 -26 -84 -39 -110 -78 -153
-57 -63 -86 -66 -91 -7 -3 33 2 43 36 75 45 42 66 77 58 98 -21 56 -125 -58
-129 -142 -1 -19 -5 -34 -9 -34 -4 0 -32 24 -63 53 l-56 52 94 114 c52 63 102
127 111 142 34 57 -5 27 -86 -66 -88 -101 -98 -103 -79 -14 6 27 11 67 11 87
-1 55 -15 23 -50 -110 -20 -77 -36 -118 -50 -130 -18 -14 -19 -20 -8 -37 10
-17 8 -37 -10 -118 -25 -112 -25 -113 -13 -113 10 0 33 57 53 135 23 84 28 81
219 -145 26 -30 50 -52 53 -49 4 4 -14 36 -39 73 -25 36 -45 68 -45 71 0 3 13
5 30 5 19 0 42 11 65 31 l35 31 0 -35 c0 -34 20 -67 42 -67 6 0 21 12 34 27
13 16 35 42 49 58 17 20 28 26 32 18 8 -21 40 -15 61 12 11 14 22 25 24 25 3
0 1 -21 -3 -48 -12 -71 -10 -96 6 -118 15 -19 16 -18 40 9 14 15 25 34 25 41
0 23 29 41 42 28 28 -28 72 -13 142 45 37 32 74 70 82 85 16 31 39 37 48 13 9
-24 -4 -46 -61 -108 -58 -60 -62 -80 -21 -85 36 -4 86 42 114 104 34 77 62 90
43 19 -13 -47 1 -85 32 -85 12 0 39 14 60 31 l39 30 11 -25 c7 -14 18 -26 25
-26 7 0 33 26 56 58 l43 57 5 -45 c5 -48 18 -54 65 -34 11 4 -6 -21 -39 -57
-102 -112 -143 -214 -101 -249 40 -33 91 31 155 200 23 59 56 125 73 146 l32
38 5 -79 c6 -103 21 -108 90 -33 27 29 50 47 50 41 0 -20 34 -15 63 7 33 26
35 26 39 -12 2 -27 7 -33 27 -33 18 0 32 14 62 64 40 66 52 103 21 65 -9 -12
-30 -43 -45 -69 -15 -26 -30 -45 -33 -42 -3 2 0 35 7 71 6 37 8 70 4 74 -4 4
-19 -9 -34 -28 -14 -19 -39 -48 -54 -65 l-29 -30 6 40 c3 22 9 51 13 64 11 43
-20 18 -57 -47 -20 -33 -50 -78 -68 -99 l-33 -38 5 56 c5 60 16 85 71 162 42
58 65 131 65 204 0 46 -3 53 -20 53 -27 0 -64 -68 -105 -190 -32 -98 -51 -132
-87 -151 -15 -8 -16 -5 -7 23 12 42 12 88 0 88 -5 0 -12 -9 -16 -20 -5 -15
-12 -18 -34 -14 -20 4 -35 -1 -58 -20 -37 -31 -59 -33 -68 -7 -3 11 -12 22
-20 25 -18 7 -61 -28 -81 -65 -18 -36 -82 -109 -95 -109 -13 0 -11 33 7 106 9
36 14 68 10 71 -3 4 -19 -6 -34 -20 -34 -32 -43 -33 -67 -7 -11 12 -31 20 -52
20 -18 0 -33 2 -33 5 0 3 14 32 30 65 41 81 63 166 49 192 -26 48 -56 -8 -99
-182 -34 -134 -49 -166 -103 -218 -45 -44 -71 -40 -75 11 -3 33 2 43 36 75 64
60 80 112 33 112 -33 0 -77 -66 -122 -184 -48 -124 -58 -120 -39 16 7 49 10
92 5 96 -4 4 -27 -15 -52 -43 l-44 -50 6 65 c6 64 6 65 -12 43 -10 -12 -33
-49 -52 -82 -19 -33 -47 -75 -62 -93 l-28 -33 0 35 c-1 62 19 122 54 165 47
56 76 126 82 195 7 69 -3 93 -31 78z m-2 -141 c-22 -68 -52 -127 -64 -127 -6
0 -10 2 -10 4 0 10 44 146 64 196 l21 55 3 -38 c2 -21 -4 -61 -14 -90z m1166
46 c-6 -25 -25 -75 -42 -112 -24 -51 -32 -61 -35 -44 -5 24 51 199 70 222 18
21 22 -10 7 -66z m-684 3 c-9 -31 -19 -56 -22 -56 -7 0 4 62 17 97 18 47 21
15 5 -41z m-685 -164 c-5 -10 -18 -25 -27 -33 -16 -12 -17 -12 -9 1 10 18 37
50 42 50 2 0 -1 -8 -6 -18z m500 0 c-5 -10 -18 -25 -27 -33 -16 -12 -17 -12
-9 1 10 18 37 50 42 50 2 0 -1 -8 -6 -18z m619 -42 c0 -26 -23 -72 -44 -89
-21 -18 -20 -3 5 58 22 53 39 66 39 31z m-156 -71 c-5 -18 -15 -34 -22 -37
-15 -5 -16 27 -2 64 16 40 36 16 24 -27z m-294 -27 c0 -14 -59 -66 -67 -59 -3
4 6 21 22 37 28 30 45 38 45 22z m380 -170 c-33 -86 -63 -132 -86 -132 -20 0
-18 46 6 94 24 49 103 143 108 128 1 -5 -11 -46 -28 -90z"/>
<path d="M2965 570 c-3 -5 1 -10 9 -10 9 0 16 5 16 10 0 6 -4 10 -9 10 -6 0
-13 -4 -16 -10z"/>
</g>
</svg>
