<?xml version="1.0" standalone="no"?>
<!DOCTYPE svg PUBLIC "-//W3C//DTD SVG 20010904//EN"
 "http://www.w3.org/TR/2001/REC-SVG-20010904/DTD/svg10.dtd">
<svg version="1.0" xmlns="http://www.w3.org/2000/svg"
 width="299.000000pt" height="300.000000pt" viewBox="0 0 299.000000 300.000000"
 preserveAspectRatio="xMidYMid meet">

<g transform="translate(0.000000,300.000000) scale(0.100000,-0.100000)"
fill="#000000" stroke="none">
<path d="M313 1361 c-10 -11 -35 -64 -57 -118 -74 -187 -98 -243 -105 -243 -9
0 4 112 20 186 15 65 9 88 -14 53 -20 -30 -49 -208 -40 -250 8 -42 38 -38 61
9 11 20 45 103 76 184 32 81 62 150 67 153 14 9 10 -59 -11 -190 -45 -272 -22
-281 103 -40 48 94 85 161 82 150 -36 -143 -45 -183 -51 -243 -8 -85 -1 -122
25 -122 22 0 36 16 77 88 30 52 32 54 43 34 16 -30 62 -29 100 4 l31 26 0 -36
c0 -48 15 -45 38 7 11 23 32 58 47 77 l27 35 -6 -35 c-17 -90 -17 -115 -2
-135 16 -20 16 -20 41 8 14 15 25 36 26 45 0 12 3 11 9 -5 14 -36 35 -27 70
27 18 28 34 50 36 50 1 0 0 -22 -3 -50 -6 -55 5 -65 30 -27 14 20 14 17 9 -47
-4 -63 -3 -68 14 -64 13 2 25 22 38 58 23 67 23 67 38 52 20 -20 65 -13 98 14
l31 27 -6 -49 c-8 -62 12 -98 40 -74 28 23 95 200 76 200 -4 0 -15 -26 -25
-57 -24 -76 -58 -142 -64 -124 -10 29 20 169 51 237 32 72 32 72 82 81 l50 10
-45 2 -45 1 3 45 c2 25 0 45 -5 45 -16 0 -40 -33 -52 -72 -11 -32 -17 -37 -51
-43 -22 -4 -42 -11 -46 -16 -7 -11 3 -11 44 0 17 5 32 8 32 6 0 -27 -36 -148
-52 -173 -42 -68 -98 -80 -98 -22 0 23 10 41 40 69 39 37 50 64 30 76 -31 19
-83 -54 -120 -167 -12 -38 -23 -68 -25 -68 -2 0 -1 32 2 70 6 69 0 83 -25 58
-9 -9 -12 -5 -12 20 0 49 -23 39 -65 -29 -20 -33 -39 -58 -42 -56 -2 3 0 29 6
58 9 54 -1 92 -15 53 -4 -10 -23 -53 -42 -94 -30 -63 -36 -71 -39 -49 -2 15 3
57 12 94 23 102 7 112 -55 34 -39 -49 -40 -50 -40 -22 0 16 15 49 35 77 61 87
93 200 60 213 -37 13 -68 -53 -125 -267 -14 -50 -70 -113 -97 -108 -11 2 -19
14 -21 32 -3 22 5 37 37 68 40 37 52 70 31 83 -21 13 -56 -29 -120 -146 -36
-68 -72 -125 -79 -127 -21 -7 -6 118 35 284 39 160 40 174 19 174 -11 0 -48
-67 -111 -196 -52 -108 -98 -194 -100 -191 -3 3 7 83 21 177 21 132 25 178 16
196 -13 29 -25 30 -48 5z m521 -90 c-18 -49 -44 -94 -50 -88 -6 6 26 108 44
142 24 45 29 5 6 -54z m529 19 c-3 -12 -8 -19 -11 -16 -5 6 5 36 12 36 2 0 2
-9 -1 -20z m-19 -65 c-4 -8 -8 -15 -10 -15 -2 0 -4 7 -4 15 0 8 4 15 10 15 5
0 7 -7 4 -15z m-684 -94 c-6 -12 -15 -21 -21 -21 -5 0 -2 11 7 25 20 30 31 26
14 -4z m531 -4 c-13 -12 -20 -15 -16 -7 14 26 28 41 33 35 3 -3 -5 -16 -17
-28z"/>
<path d="M1863 1340 c-19 -19 -61 -129 -83 -218 -12 -49 -73 -122 -100 -122
-40 0 -36 67 5 94 34 22 61 76 44 87 -17 10 -42 -4 -68 -37 -22 -29 -43 -92
-35 -106 15 -23 -17 -3 -55 36 l-43 44 86 103 c47 57 86 110 86 118 0 19 -17
4 -86 -79 -32 -39 -61 -70 -65 -70 -3 0 0 26 7 58 16 65 18 102 6 102 -5 0
-16 -34 -26 -76 -30 -126 -36 -144 -51 -144 -18 0 -20 -17 -3 -22 10 -4 8 -23
-6 -84 -10 -43 -21 -85 -23 -91 -3 -7 1 -13 9 -13 9 0 21 25 33 73 30 118 9
129 202 -102 41 -49 36 -12 -6 44 l-42 55 29 0 c18 0 38 10 53 26 l24 26 5
-39 c4 -30 10 -39 27 -41 17 -2 30 9 56 48 25 37 36 47 40 35 9 -23 34 -18 53
10 9 14 18 24 20 23 1 -2 -2 -25 -7 -52 -18 -98 19 -138 53 -57 18 42 23 47
35 35 26 -26 68 -17 102 21 17 19 36 35 44 35 7 0 21 16 30 35 20 43 47 47 47
7 0 -21 -11 -37 -45 -65 -52 -44 -60 -77 -19 -77 32 0 80 49 89 90 6 27 31 58
40 48 2 -2 -1 -20 -7 -41 -19 -63 26 -90 72 -42 29 30 36 31 43 4 8 -32 39
-19 62 25 27 51 47 59 38 16 -8 -40 12 -56 44 -34 36 23 27 1 -18 -41 -23 -22
-54 -60 -70 -84 -45 -69 -35 -143 15 -120 32 15 61 64 96 165 21 61 42 102 61
120 l29 28 -2 -65 c-3 -59 -1 -64 18 -67 16 -2 30 8 50 37 28 40 44 51 44 31
0 -17 29 -11 50 10 27 27 30 25 30 -10 0 -23 5 -30 19 -30 21 0 27 7 65 73 15
26 22 47 17 47 -6 0 -22 -22 -36 -49 -28 -56 -51 -78 -42 -40 14 54 19 109 11
109 -5 0 -24 -23 -43 -50 -37 -56 -57 -65 -46 -22 3 15 9 37 12 50 7 31 -15
28 -27 -3 -14 -36 -91 -148 -97 -141 -3 3 -2 30 1 60 6 41 14 62 38 86 43 45
71 115 72 180 1 42 -2 55 -14 55 -29 0 -65 -72 -100 -200 -7 -24 -23 -50 -42
-65 -29 -22 -31 -23 -24 -5 14 37 19 85 8 85 -6 0 -14 -9 -17 -21 -5 -15 -10
-18 -20 -9 -15 13 -42 2 -65 -24 -17 -22 -37 -20 -43 4 -10 37 -49 25 -75 -23
-37 -69 -92 -120 -92 -85 0 6 7 38 16 70 9 32 14 61 10 65 -3 3 -17 -6 -30
-20 -30 -32 -37 -33 -54 -6 -10 16 -21 20 -43 17 -16 -3 -28 -2 -27 1 2 3 18
36 37 73 38 77 46 140 18 146 -21 4 -41 -39 -64 -137 -8 -36 -20 -83 -25 -104
-11 -44 -72 -117 -98 -117 -40 0 -36 67 5 94 34 22 61 76 44 87 -34 20 -79
-36 -114 -141 -41 -124 -56 -118 -31 13 19 96 3 101 -56 16 -17 -24 -17 -23
-12 36 5 56 4 59 -10 41 -9 -11 -16 -24 -16 -29 0 -12 -90 -147 -97 -147 -3 0
-3 28 1 62 5 50 12 68 35 93 45 47 72 110 74 172 2 63 -10 76 -40 43z m25 -49
c-5 -50 -52 -161 -68 -161 -5 0 -2 24 7 53 22 75 53 157 60 157 3 0 3 -22 1
-49z m371 -23 c-19 -60 -28 -44 -10 20 9 33 17 49 19 38 2 -11 -2 -37 -9 -58z
m555 30 c-6 -45 -62 -173 -71 -164 -13 13 51 206 68 206 5 0 7 -18 3 -42z
m-1104 -157 c-11 -21 -30 -37 -30 -25 0 8 30 44 37 44 2 0 -1 -9 -7 -19z m400
0 c-11 -21 -30 -37 -30 -25 0 8 30 44 37 44 2 0 -1 -9 -7 -19z m500 -33 c0
-24 -49 -93 -50 -71 0 21 32 93 41 93 5 0 9 -10 9 -22z m-127 -54 c-14 -43
-37 -45 -28 -3 10 45 15 53 27 41 7 -7 7 -20 1 -38z m-250 -42 c-11 -15 -29
-29 -39 -30 -15 -3 -11 4 15 32 39 41 55 40 24 -2z m323 -105 c-29 -78 -53
-117 -72 -117 -18 0 -18 31 0 74 14 34 85 120 93 113 2 -3 -7 -34 -21 -70z"/>
<path d="M2370 1190 c0 -5 5 -10 10 -10 6 0 10 5 10 10 0 6 -4 10 -10 10 -5 0
-10 -4 -10 -10z"/>
</g>
</svg>
